<?xml version="1.0" encoding="utf-8"?>
<!-- Generator: Adobe Illustrator 20.0.0, SVG Export Plug-In . SVG Version: 6.00 Build 0)  -->
<svg version="1.1" id="Layer_1" xmlns="http://www.w3.org/2000/svg" xmlns:xlink="http://www.w3.org/1999/xlink" x="0px" y="0px"
	 viewBox="0 0 61 49" style="enable-background:new 0 0 61 49;" xml:space="preserve">
<style type="text/css">
	.st0{fill:#2ECC71;}
</style>
<title>Page 1</title>
<desc>Created with Sketch.</desc>
<g id="LANDING-PAGE">
	<g id="LANDING-KO" transform="translate(-157.000000, -407.000000)">
		<g id="Page-1" transform="translate(157.000000, 407.000000)">
			<g>
				<path id="Fill-1" class="st0" d="M59.4,25.7l-57.9,0c-0.7,0-1.2-0.5-1.2-1.2s0.5-1.2,1.2-1.2l57.9,0c0.7,0,1.2,0.5,1.2,1.2
					S60.1,25.7,59.4,25.7L59.4,25.7z"/>
				<path id="Fill-2" class="st0" d="M36.5,48.6c-0.3,0-0.6-0.1-0.9-0.4c-0.5-0.5-0.5-1.2,0-1.7l22.1-22.1L35.7,2.4
					c-0.5-0.5-0.5-1.2,0-1.7c0.5-0.5,1.2-0.5,1.7,0l22.9,22.9c0.2,0.2,0.4,0.5,0.4,0.8s-0.1,0.6-0.4,0.8L37.4,48.3
					C37.1,48.5,36.8,48.6,36.5,48.6L36.5,48.6z"/>
			</g>
		</g>
	</g>
</g>
</svg>
