<svg xmlns="http://www.w3.org/2000/svg" viewBox="0 0 151.92 36.14"><defs><style>.cls-1{fill:#231f20;}</style></defs><title>Asset 1</title><g id="Layer_2" data-name="Layer 2"><g id="Layer_1-2" data-name="Layer 1"><path class="cls-1" d="M9.59,6.51,8.2,14.42l.1.1a8.78,8.78,0,0,1,3.08-2.06,10.48,10.48,0,0,1,3.73-.62,10.55,10.55,0,0,1,4.57.94A10.06,10.06,0,0,1,23,15.31a11.05,11.05,0,0,1,2.09,3.75,14.45,14.45,0,0,1,.72,4.6,12,12,0,0,1-1,5,12.75,12.75,0,0,1-2.81,4,12.46,12.46,0,0,1-4.1,2.61,12.8,12.8,0,0,1-5,.87,17.3,17.3,0,0,1-4.85-.67A12.1,12.1,0,0,1,4,33.41,10.34,10.34,0,0,1,1.12,30,10.7,10.7,0,0,1,0,25.15H7.06A5.77,5.77,0,0,0,8.85,29a5.58,5.58,0,0,0,3.93,1.42,5.43,5.43,0,0,0,2.51-.57,6,6,0,0,0,1.89-1.49,6.72,6.72,0,0,0,1.19-2.14,7.62,7.62,0,0,0,.42-2.51,8,8,0,0,0-.4-2.54A5.94,5.94,0,0,0,17.2,19a5.62,5.62,0,0,0-1.89-1.39,6.09,6.09,0,0,0-2.54-.5,6.24,6.24,0,0,0-3.08.67,7.19,7.19,0,0,0-2.24,2.11H1.09L4.52.7H24V6.51Z"/><path class="cls-1" d="M26.79,8.53a12.89,12.89,0,0,1,2.39-4.47,10.81,10.81,0,0,1,4-3A13.56,13.56,0,0,1,38.73,0a13.85,13.85,0,0,1,4.55.75,11.72,11.72,0,0,1,3.8,2.14,10.16,10.16,0,0,1,2.61,3.43,10.52,10.52,0,0,1,1,4.57,11,11,0,0,1-.85,4.52,11.89,11.89,0,0,1-2.24,3.36,19,19,0,0,1-3.16,2.66q-1.77,1.19-3.55,2.36T37.38,26.3a15.75,15.75,0,0,0-3,3.13H50.85v6.06H25.3a14.5,14.5,0,0,1,.87-5.27,14,14,0,0,1,2.36-4A20.67,20.67,0,0,1,32,23q2-1.49,4.25-3,1.14-.79,2.44-1.62a16.25,16.25,0,0,0,2.36-1.81,9.67,9.67,0,0,0,1.79-2.24,5.55,5.55,0,0,0,.72-2.83,5.24,5.24,0,0,0-1.47-4,5.18,5.18,0,0,0-3.75-1.42,4.56,4.56,0,0,0-2.61.72,5.37,5.37,0,0,0-1.71,1.89,8.68,8.68,0,0,0-.92,2.58,14.77,14.77,0,0,0-.27,2.81H26.1A16.68,16.68,0,0,1,26.79,8.53Z"/><path class="cls-1" d="M68.15,0a18.28,18.28,0,0,1,6.39,1.09,13.87,13.87,0,0,1,5.12,3.28A15.15,15.15,0,0,1,83,9.84a22.12,22.12,0,0,1,1.22,7.71,24.61,24.61,0,0,1-1,7.16,15.76,15.76,0,0,1-3,5.67,14.1,14.1,0,0,1-5,3.75,17,17,0,0,1-7.08,1.37H52.84V0Zm-.55,28.93a10,10,0,0,0,3.28-.55,7.22,7.22,0,0,0,2.83-1.81,9.12,9.12,0,0,0,2-3.31,14.53,14.53,0,0,0,.75-5,20.72,20.72,0,0,0-.52-4.85,9.68,9.68,0,0,0-1.72-3.7,7.61,7.61,0,0,0-3.16-2.36,12.61,12.61,0,0,0-4.85-.82H60.65V28.93Z"/><path class="cls-1" d="M86.6,17.08a11.76,11.76,0,0,1,6.86-7,14.68,14.68,0,0,1,5.47-1,14.88,14.88,0,0,1,5.49,1,11.71,11.71,0,0,1,6.89,7,15.8,15.8,0,0,1,.94,5.59,15.59,15.59,0,0,1-.94,5.57,12.08,12.08,0,0,1-2.68,4.25,11.69,11.69,0,0,1-4.2,2.71,15.23,15.23,0,0,1-5.49.94,15,15,0,0,1-5.47-.94,11.73,11.73,0,0,1-4.18-2.71,12.06,12.06,0,0,1-2.68-4.25,15.57,15.57,0,0,1-.94-5.57A15.78,15.78,0,0,1,86.6,17.08ZM93,25.68a8,8,0,0,0,1,2.63,5.41,5.41,0,0,0,1.91,1.86,5.83,5.83,0,0,0,3,.7,6,6,0,0,0,3-.7,5.36,5.36,0,0,0,1.94-1.86,8,8,0,0,0,1-2.63,15.06,15.06,0,0,0,.3-3,15.43,15.43,0,0,0-.3-3,7.75,7.75,0,0,0-1-2.63,5.66,5.66,0,0,0-1.94-1.86,5.82,5.82,0,0,0-3-.72A5.43,5.43,0,0,0,94,17a7.73,7.73,0,0,0-1,2.63,15.4,15.4,0,0,0-.3,3A15,15,0,0,0,93,25.68Z"/><path class="cls-1" d="M128.45,9.79v4.72h-5.17V27.24a3.45,3.45,0,0,0,.6,2.39,3.45,3.45,0,0,0,2.39.6c.4,0,.78,0,1.14,0a9.54,9.54,0,0,0,1-.15v5.47a16.78,16.78,0,0,1-2,.2q-1.09,0-2.14,0a20.64,20.64,0,0,1-3.11-.22,7.33,7.33,0,0,1-2.58-.87,4.6,4.6,0,0,1-1.76-1.84,6.56,6.56,0,0,1-.65-3.13V14.52H112V9.79h4.28V2.09h7.06V9.79Z"/><path class="cls-1" d="M135.29,29.11a4.12,4.12,0,0,0,1.22,1.34,5.2,5.2,0,0,0,1.72.77,8,8,0,0,0,2,.25,7.5,7.5,0,0,0,1.57-.17,5.32,5.32,0,0,0,1.49-.55,3.38,3.38,0,0,0,1.12-1,2.61,2.61,0,0,0,.45-1.57q0-1.59-2.11-2.39a42.39,42.39,0,0,0-5.89-1.59q-1.54-.35-3-.82a10.23,10.23,0,0,1-2.61-1.24,6,6,0,0,1-1.84-1.94,5.48,5.48,0,0,1-.7-2.86,7.74,7.74,0,0,1,1-4.08,7.15,7.15,0,0,1,2.56-2.51,11.21,11.21,0,0,1,3.58-1.29,22,22,0,0,1,4.08-.37,20.4,20.4,0,0,1,4.05.4,10.75,10.75,0,0,1,3.5,1.34A8.06,8.06,0,0,1,150,13.35a8.44,8.44,0,0,1,1.22,4h-6.71A3.09,3.09,0,0,0,143,14.54a7.05,7.05,0,0,0-3.28-.72,12.16,12.16,0,0,0-1.29.07,4.31,4.31,0,0,0-1.27.32,2.61,2.61,0,0,0-1,.72,1.9,1.9,0,0,0-.4,1.27,1.93,1.93,0,0,0,.7,1.54,5.36,5.36,0,0,0,1.81,1,22.71,22.71,0,0,0,2.56.67q1.44.3,2.93.65a30.09,30.09,0,0,1,3,.85,9.91,9.91,0,0,1,2.61,1.32,6.38,6.38,0,0,1,1.84,2,6,6,0,0,1,.7,3,7.81,7.81,0,0,1-3.68,7,10.9,10.9,0,0,1-3.75,1.47,21.92,21.92,0,0,1-4.3.42,21.29,21.29,0,0,1-4.37-.45A11.55,11.55,0,0,1,132,34.2a8.52,8.52,0,0,1-2.73-2.76,8.64,8.64,0,0,1-1.17-4.3h6.71A3.86,3.86,0,0,0,135.29,29.11Z"/></g></g></svg>